<?xml version="1.0" standalone="no"?>
<!DOCTYPE svg PUBLIC "-//W3C//DTD SVG 20010904//EN"
 "http://www.w3.org/TR/2001/REC-SVG-20010904/DTD/svg10.dtd">
<svg version="1.0" xmlns="http://www.w3.org/2000/svg"
 width="139.000000pt" height="147.000000pt" viewBox="0 0 139.000000 147.000000"
 preserveAspectRatio="xMidYMid meet">
<metadata>
Created by potrace 1.15, written by Peter Selinger 2001-2017
</metadata>
<g transform="translate(0.000000,147.000000) scale(0.100000,-0.100000)"
fill="#000000" stroke="none">
<path d="M695 1430 c-65 -21 -142 -75 -186 -130 -24 -31 -27 -40 -20 -77 5
-23 5 -59 1 -80 -5 -30 -1 -49 19 -88 31 -63 36 -162 9 -192 -10 -11 -18 -23
-18 -26 0 -13 77 -45 131 -55 65 -12 130 -37 179 -68 80 -51 151 -153 165
-239 5 -36 3 -34 -28 30 -63 131 -163 204 -317 231 -46 8 -103 25 -127 39
l-44 24 -65 -21 c-66 -22 -106 -57 -135 -121 -8 -17 -20 -27 -33 -27 -81 0
-156 -56 -156 -116 0 -38 15 -43 67 -23 39 15 96 13 132 -5 43 -23 48 -21 70
23 47 90 165 161 270 161 90 0 186 -46 232 -111 23 -34 23 -33 -24 8 -105 91
-258 97 -360 12 -62 -51 -82 -100 -81 -199 1 -96 19 -155 64 -211 l28 -36 -49
5 c-101 10 -179 -48 -134 -98 17 -19 32 -20 263 -20 231 0 245 1 273 21 l29
21 43 -21 c117 -56 295 6 392 137 83 112 98 280 37 405 -44 88 -113 150 -256
227 -127 69 -188 125 -200 182 -12 62 48 104 87 60 20 -22 22 -48 5 -56 -9 -3
-7 -10 7 -21 27 -23 116 -16 153 12 94 70 93 224 -3 331 -106 117 -268 160
-420 112z"/>
<path d="M117 1327 c-12 -33 -20 -194 -10 -212 8 -14 5 -26 -13 -53 -25 -37
-44 -92 -44 -131 0 -35 67 -97 120 -111 25 -7 57 -19 73 -26 24 -13 32 -13 60
-1 17 8 55 23 82 33 71 25 105 62 105 114 0 43 -21 103 -46 131 -13 14 -13 24
-4 59 8 30 8 56 1 91 -6 28 -11 64 -11 80 0 42 -14 34 -53 -31 l-33 -55 -72
-3 -71 -3 -30 53 c-49 87 -47 84 -54 65z"/>
<path d="M197 453 c-10 -9 -8 -63 3 -104 13 -46 48 -78 93 -86 46 -7 54 10 33
62 -9 21 -16 51 -16 67 0 24 -7 32 -42 48 -46 21 -61 24 -71 13z"/>
</g>
</svg>
