<?xml version="1.0" standalone="no"?>
<!DOCTYPE svg PUBLIC "-//W3C//DTD SVG 20010904//EN"
 "http://www.w3.org/TR/2001/REC-SVG-20010904/DTD/svg10.dtd">
<svg version="1.0" xmlns="http://www.w3.org/2000/svg"
 width="570.000000pt" height="570.000000pt" viewBox="0 0 570.000000 570.000000"
 preserveAspectRatio="xMidYMid meet">
<metadata>
Created by potrace 1.15, written by Peter Selinger 2001-2017
</metadata>
<g transform="translate(0.000000,570.000000) scale(0.100000,-0.100000)"
fill="#000000" stroke="none">
<path d="M1697 2190 c-26 -9 -44 -20 -40 -25 5 -4 0 -5 -9 -2 -23 8 -50 -2
-41 -16 4 -6 0 -8 -10 -4 -34 13 -247 -134 -247 -170 0 -9 -3 -13 -7 -9 -9 9
-58 -71 -84 -137 -26 -64 -36 -195 -17 -217 23 -27 63 -48 135 -69 66 -20 74
-20 110 -6 171 67 527 135 710 135 86 0 191 -15 248 -35 34 -12 40 -17 37 -39
-2 -18 2 -26 13 -26 18 0 20 -17 3 -23 -9 -3 -8 -10 6 -26 11 -11 17 -22 15
-24 -33 -24 -63 -37 -75 -33 -8 3 -14 -1 -14 -9 0 -8 6 -14 13 -12 6 1 12 -5
12 -13 0 -8 -5 -14 -12 -13 -6 2 -15 -6 -18 -17 -4 -11 -12 -20 -18 -20 -6 0
-1 -7 11 -16 25 -17 21 -34 -8 -34 -22 0 -35 -20 -44 -72 -4 -21 -12 -38 -18
-38 -6 0 -8 -3 -4 -7 4 -5 13 -8 19 -8 7 0 12 -7 12 -15 0 -8 -4 -15 -10 -15
-5 0 -21 -8 -33 -17 -18 -12 -22 -22 -17 -38 4 -11 2 -26 -3 -33 -15 -19 -23
-77 -11 -77 6 0 9 -6 6 -14 -3 -7 -1 -18 4 -23 7 -7 -8 -9 -43 -7 l-53 3 48
-11 c26 -5 47 -14 47 -20 0 -5 -8 -7 -17 -4 -43 13 -73 18 -73 12 0 -3 18 -10
41 -16 47 -13 117 -1 184 32 54 26 98 65 89 80 -4 6 -3 8 3 5 6 -4 12 14 16
46 7 62 36 157 54 175 7 7 13 20 13 28 0 8 5 14 10 14 6 0 10 5 10 10 0 15 71
109 106 141 76 69 185 129 278 153 64 17 73 22 62 33 -4 4 -11 1 -16 -6 -4 -8
-15 -11 -23 -8 -9 3 -29 -1 -45 -8 -16 -8 -44 -17 -63 -20 l-34 -5 30 12 30
13 -45 6 c-38 5 -35 6 22 5 75 -1 109 16 73 37 -30 18 -56 25 -97 26 -33 1
-40 6 -60 41 -22 37 -58 55 -58 28 0 -9 -3 -9 -12 0 -7 7 -29 12 -50 12 -21 0
-38 4 -38 9 0 14 18 23 22 11 2 -6 18 -4 42 4 45 16 32 30 -18 21 -28 -6 -37
-3 -48 14 -7 12 -23 21 -35 21 -16 0 -29 12 -45 40 -21 37 -58 55 -58 29 0 -8
-4 -8 -15 1 -8 6 -31 12 -52 13 -23 1 -46 9 -58 20 -11 11 -14 17 -7 13 7 -4
12 -2 13 6 0 7 4 4 9 -8 6 -16 16 -20 46 -18 22 0 47 5 57 9 9 4 28 5 42 3 13
-3 22 -2 20 2 -6 9 19 20 43 20 9 0 39 11 66 25 27 14 56 25 64 25 9 0 13 3
10 6 -3 3 -35 0 -69 -7 -35 -6 -77 -14 -94 -17 -47 -8 -148 -4 -179 7 -20 8
-25 8 -20 0 4 -7 0 -9 -14 -5 -18 6 -20 3 -17 -28 3 -31 0 -34 -29 -39 -43 -7
-222 11 -276 27 -110 33 -227 100 -302 172 l-53 51 -48 -17z"/>
<path d="M4195 945 c5 -35 4 -37 -6 -17 -7 12 -16 22 -21 22 -5 0 -7 -4 -4 -9
9 -14 18 -96 10 -88 -4 4 -13 -2 -21 -13 -8 -11 -20 -17 -29 -13 -8 3 -14 2
-12 -3 4 -16 -13 -54 -22 -49 -5 3 -12 -5 -16 -17 -4 -13 -16 -35 -28 -50 -11
-14 -31 -40 -44 -56 -13 -17 -41 -47 -62 -69 -22 -21 -38 -43 -36 -50 3 -7 0
-10 -7 -7 -7 2 -17 -4 -24 -15 -11 -17 -9 -18 28 -9 21 6 36 14 34 18 -3 5 0
12 6 16 8 5 9 3 4 -6 -11 -18 39 -8 102 22 46 21 140 90 156 115 4 7 13 18 20
25 30 32 57 72 57 86 0 13 -3 12 -15 -4 -11 -14 -14 -15 -15 -4 0 23 16 43 31
38 8 -3 19 6 26 20 17 32 17 48 0 33 -16 -13 -27 -5 -27 21 0 10 -8 22 -17 25
-10 4 -21 11 -25 17 -5 6 -6 -6 -3 -28 2 -21 2 -36 -2 -32 -3 3 -7 14 -8 24
-2 18 -11 44 -26 77 -6 14 -7 9 -4 -20z"/>
<path d="M2354 416 c-30 -13 -94 -102 -94 -130 0 -31 52 -36 339 -34 l283 3
-48 34 c-27 19 -63 49 -80 67 -27 29 -44 35 -120 48 -138 25 -243 29 -280 12z"/>
</g>
</svg>
